<?xml version="1.0" encoding="UTF-8"?>
<svg width="500px" height="500px" viewBox="0 0 500 500" version="1.1" xmlns="http://www.w3.org/2000/svg" xmlns:xlink="http://www.w3.org/1999/xlink">
    <!-- Generator: Sketch 54.1 (76490) - https://sketchapp.com -->
    <title>cloudinary</title>
    <desc>Created with Sketch.</desc>
    <defs>
        <linearGradient x1="50%" y1="100%" x2="50%" y2="3.061617e-15%" id="linearGradient-1">
            <stop stop-color="#0A2242" offset="0%"></stop>
            <stop stop-color="#0E2F5A" offset="100%"></stop>
        </linearGradient>
    </defs>
    <g id="Page-1" stroke="none" stroke-width="1" fill="none" fill-rule="evenodd">
        <rect id="Rectangle-Copy-49" fill="url(#linearGradient-1)" x="0" y="0" width="500" height="500" rx="20"></rect>
        <g id="cloudinary_vertical_logo_for_dark_bg" transform="translate(80.000000, 104.000000)" fill-rule="nonzero">
            <g id="Group" transform="translate(16.000000, 0.000000)">
                <path d="M265.47011,196.511738 C261.517291,196.511738 257.837165,194.0005 256.540031,190.04481 C254.925984,185.120429 257.616063,179.820833 262.551559,178.209619 C280.43137,172.368048 291.98274,156.72431 291.98274,138.353524 C291.98274,115.087786 273.021984,96.1578571 249.715339,96.1578571 C248.096378,96.1578571 246.354583,96.285381 244.234457,96.5600476 L235.043969,97.7494524 L233.724724,88.5898095 C228.076787,49.3124762 193.801008,19.692619 153.995213,19.692619 C121.087811,19.692619 91.791748,39.3582619 79.368252,69.7947619 L77.0294803,75.5210714 L70.8386142,75.633881 C42.3876535,76.1562381 19.2406929,99.6770238 19.2406929,128.063333 C19.2406929,148.785952 31.2932283,167.684 49.9444409,176.206024 C54.663748,178.364119 56.7396535,183.931024 54.5777638,188.642048 C52.415874,193.353071 46.8416378,195.420429 42.1223307,193.26969 C16.8036535,181.699357 0.44207874,156.10631 0.44207874,128.063333 C0.44207874,91.5719048 28.608063,61.0029762 64.3848819,57.248381 C80.8692913,22.8414762 115.417764,0.929452381 153.997669,0.929452381 C200.173669,0.929452381 240.313575,33.2469286 250.722583,77.4045 C283.934614,77.9415714 310.788724,105.077167 310.788724,138.355976 C310.788724,164.579286 293.754016,187.761643 268.403402,196.043333 C267.425638,196.362143 266.440504,196.511738 265.47011,196.511738 Z" id="Path" fill="#0071CE"></path>
                <path d="M121.839559,200.874524 C121.837102,200.872071 121.837102,200.872071 121.834646,200.872071 C121.832189,200.872071 121.829732,200.869619 121.827276,200.869619 L121.824819,200.869619 C121.824819,200.869619 121.822362,200.867167 121.822362,200.867167 L121.819906,200.864714 C121.819906,200.864714 121.817449,200.864714 121.817449,200.862262 L121.814992,200.862262 L121.812535,200.85981 C121.814992,200.857357 121.810079,200.857357 121.810079,200.857357 L121.807622,200.854905 C121.807622,200.854905 121.805165,200.854905 121.805165,200.854905 L121.802709,200.852452 C121.805165,200.854905 121.800252,200.85 121.800252,200.85 C121.800252,200.85 121.795339,200.847548 121.792882,200.847548 L121.790425,200.845095 L121.787969,200.845095 C121.785512,200.842643 121.785512,200.842643 121.785512,200.842643 L121.783055,200.84019 C121.775685,200.837738 121.778142,200.837738 121.775685,200.837738 C121.773228,200.84019 121.773228,200.835286 121.770772,200.835286 L121.768315,200.832833 C121.768315,200.832833 121.765858,200.830381 121.763402,200.830381 L121.760945,200.827929 C121.758488,200.825476 121.753575,200.825476 121.751118,200.825476 C121.748661,200.825476 121.743748,200.823024 121.741291,200.823024 C121.738835,200.820571 121.738835,200.820571 121.736378,200.820571 L121.733921,200.820571 C121.731465,200.818119 121.729008,200.818119 121.726551,200.818119 C121.724094,200.815667 121.719181,200.815667 121.719181,200.815667 C121.716724,200.815667 121.716724,200.815667 121.716724,200.815667 L121.711811,200.813214 C121.709354,200.813214 121.709354,200.810762 121.709354,200.810762 L121.706898,200.810762 C121.561953,200.759262 121.407181,200.727381 121.245039,200.720024 L121.240126,200.720024 L121.235213,200.720024 C121.232756,200.720024 121.232756,200.720024 121.230299,200.720024 C121.230299,200.720024 121.230299,200.720024 121.227843,200.720024 C121.227843,200.720024 121.225386,200.720024 121.225386,200.720024 L121.222929,200.720024 C121.220472,200.717571 121.220472,200.717571 121.220472,200.717571 C121.218016,200.717571 121.215559,200.717571 121.215559,200.717571 C121.213102,200.717571 121.210646,200.717571 121.210646,200.717571 L121.208189,200.717571 L121.205732,200.717571 L121.203276,200.717571 C121.200819,200.717571 121.198362,200.717571 121.198362,200.717571 L121.195906,200.717571 L121.193449,200.717571 L121.190992,200.717571 L121.195906,200.717571 C121.193449,200.717571 121.193449,200.717571 121.193449,200.717571 L121.190992,200.717571 L121.188535,200.717571 L121.186079,200.717571 L121.183622,200.717571 C121.181165,200.717571 121.181165,200.717571 121.181165,200.717571 C117.112882,200.717571 113.784063,197.411762 113.759496,193.360429 L113.759496,110.798571 L120.065827,110.798571 C120.075654,110.798571 120.087937,110.798571 120.097764,110.798571 C121.063244,110.840262 121.721638,110.099643 121.721638,109.209429 C121.721638,108.544833 121.313827,107.975881 120.734047,107.738 L90.3226457,86.7848571 C89.7772598,86.4096429 89.0574488,86.4096429 88.512063,86.7848571 L57.8623622,107.90231 C57.2874961,108.297143 57.0393701,109.020595 57.2457323,109.68519 C57.4545512,110.349786 58.0687244,110.801024 58.7664252,110.801024 L65.1046929,110.801024 L65.1096063,193.3825 C65.1415433,199.091643 69.7355591,203.751167 75.5800315,203.89831 C75.6463622,203.905667 75.7102362,203.910571 75.7765669,203.910571 L121.178709,203.910571 C121.188535,203.910571 121.195906,203.910571 121.205732,203.910571 C121.62337,203.903214 122.001701,203.736452 122.281764,203.469143 C122.281764,203.469143 122.281764,203.469143 122.28422,203.46669 C122.289134,203.461786 122.294047,203.456881 122.296504,203.454429 C122.298961,203.451976 122.301417,203.451976 122.303874,203.447071 C122.303874,203.447071 122.306331,203.444619 122.306331,203.444619 L122.308787,203.442167 L122.311244,203.439714 L122.313701,203.437262 L122.316157,203.43481 C122.318614,203.432357 122.318614,203.432357 122.318614,203.432357 C122.323528,203.429905 122.321071,203.429905 122.323528,203.427452 C122.323528,203.427452 122.323528,203.427452 122.325984,203.425 L122.328441,203.422548 C122.328441,203.422548 122.328441,203.422548 122.330898,203.420095 C122.606047,203.135619 122.778016,202.750595 122.780472,202.323881 L122.780472,202.318976 L122.780472,202.316524 L122.780472,202.321429 L122.780472,202.318976 L122.780472,202.316524 L122.780472,202.314071 L122.780472,202.311619 L122.780472,202.306714 C122.768189,201.671548 122.387402,201.122214 121.839559,200.874524 Z" id="Path" fill="#DC8327"></path>
                <path d="M187.602772,200.874524 C187.602772,200.874524 187.600315,200.872071 187.597858,200.872071 C187.595402,200.872071 187.592945,200.869619 187.590488,200.869619 L187.588031,200.869619 C187.585575,200.867167 187.585575,200.867167 187.585575,200.867167 L187.583118,200.864714 L187.580661,200.864714 C187.580661,200.864714 187.578205,200.862262 187.578205,200.862262 C187.578205,200.862262 187.575748,200.85981 187.575748,200.85981 C187.578205,200.857357 187.573291,200.857357 187.570835,200.857357 L187.568378,200.854905 L187.565921,200.854905 C187.563465,200.854905 187.563465,200.852452 187.563465,200.852452 C187.558551,200.854905 187.558551,200.85 187.558551,200.85 L187.553638,200.847548 L187.551181,200.845095 L187.548724,200.845095 C187.548724,200.845095 187.546268,200.842643 187.546268,200.842643 L187.543811,200.84019 C187.541354,200.837738 187.538898,200.837738 187.538898,200.837738 C187.536441,200.84019 187.536441,200.835286 187.531528,200.835286 L187.529071,200.832833 L187.526614,200.830381 C187.526614,200.830381 187.524157,200.830381 187.521701,200.827929 C187.519244,200.825476 187.514331,200.825476 187.511874,200.825476 C187.509417,200.823024 187.504504,200.823024 187.502047,200.823024 C187.499591,200.820571 187.499591,200.820571 187.497134,200.820571 C187.494677,200.820571 187.494677,200.820571 187.49222,200.818119 C187.49222,200.818119 187.489764,200.818119 187.487307,200.815667 C187.479937,200.813214 187.48485,200.813214 187.482394,200.813214 C187.475024,200.813214 187.479937,200.813214 187.47748,200.810762 C187.47748,200.810762 187.475024,200.80831 187.472567,200.80831 L187.47011,200.805857 L187.47748,200.805857 C187.332535,200.754357 187.177764,200.722476 187.015622,200.715119 L187.010709,200.715119 C187.008252,200.715119 187.008252,200.715119 187.008252,200.715119 C187.005795,200.715119 187.003339,200.715119 187.003339,200.715119 C187.003339,200.715119 187.000882,200.715119 187.000882,200.715119 L186.998425,200.715119 L186.995969,200.715119 L186.993512,200.712667 C186.991055,200.712667 186.988598,200.712667 186.988598,200.712667 C186.986142,200.712667 186.983685,200.712667 186.983685,200.712667 L186.981228,200.712667 C186.978772,200.712667 186.978772,200.712667 186.978772,200.712667 L186.976315,200.712667 C186.973858,200.712667 186.971402,200.712667 186.971402,200.712667 C186.971402,200.712667 186.968945,200.712667 186.966488,200.712667 L186.964031,200.712667 C186.964031,200.712667 186.961575,200.712667 186.961575,200.712667 L186.959118,200.712667 C186.956661,200.712667 186.956661,200.712667 186.956661,200.712667 L186.954205,200.712667 L186.951748,200.712667 L186.949291,200.712667 L186.946835,200.712667 C186.944378,200.712667 186.944378,200.712667 186.944378,200.712667 C182.878551,200.712667 179.549732,197.406857 179.525165,193.355524 L179.525165,129.287071 L185.860976,129.287071 C185.883087,129.284619 185.900283,129.284619 185.92485,129.287071 C186.804346,129.287071 187.516787,128.575881 187.516787,127.697929 C187.516787,127.033333 187.108976,126.464381 186.529197,126.2265 L156.115339,105.273357 C155.572409,104.898143 154.850142,104.898143 154.304756,105.273357 L123.655055,126.39081 C123.080189,126.785643 122.832063,127.509095 123.038425,128.17369 C123.247244,128.838286 123.861417,129.289524 124.559118,129.289524 L130.867906,129.289524 L130.872819,193.3825 C130.899843,199.094095 135.501228,203.756071 141.348157,203.900762 C141.412031,203.908119 141.475906,203.910571 141.53978,203.910571 L186.941921,203.910571 C186.951748,203.910571 186.959118,203.910571 186.968945,203.910571 C187.386583,203.903214 187.764913,203.736452 188.044976,203.469143 C188.044976,203.469143 188.044976,203.469143 188.047433,203.46669 C188.052346,203.461786 188.062173,203.456881 188.059717,203.454429 C188.062173,203.451976 188.06463,203.451976 188.067087,203.447071 C188.069543,203.444619 188.069543,203.444619 188.069543,203.444619 L188.072,203.442167 L188.074457,203.439714 C188.074457,203.439714 188.076913,203.439714 188.076913,203.437262 L188.07937,203.43481 C188.081827,203.43481 188.081827,203.432357 188.081827,203.432357 C188.089197,203.429905 188.08674,203.429905 188.08674,203.427452 C188.08674,203.427452 188.08674,203.427452 188.089197,203.425 C188.089197,203.425 188.089197,203.425 188.091654,203.422548 C188.091654,203.422548 188.091654,203.422548 188.09411,203.420095 C188.36926,203.135619 188.541228,202.750595 188.543685,202.323881 L188.543685,202.318976 L188.543685,202.316524 L188.543685,202.321429 L188.543685,202.318976 L188.543685,202.316524 L188.543685,202.314071 L188.543685,202.311619 L188.543685,202.306714 C188.531402,201.671548 188.150614,201.122214 187.602772,200.874524 Z" id="Path" fill="#F4B21B"></path>
                <path d="M253.388094,200.874524 L253.383181,200.872071 C253.380724,200.872071 253.378268,200.869619 253.375811,200.869619 L253.373354,200.869619 C253.370898,200.867167 253.370898,200.867167 253.370898,200.867167 L253.368441,200.864714 C253.365984,200.864714 253.365984,200.864714 253.365984,200.862262 L253.363528,200.862262 L253.361071,200.85981 C253.358614,200.857357 253.358614,200.857357 253.358614,200.857357 C253.358614,200.857357 253.356157,200.857357 253.356157,200.854905 L253.353701,200.854905 C253.353701,200.854905 253.351244,200.852452 253.351244,200.852452 C253.348787,200.854905 253.348787,200.85 253.346331,200.85 C253.348787,200.847548 253.343874,200.847548 253.341417,200.847548 L253.338961,200.845095 C253.336504,200.845095 253.336504,200.845095 253.336504,200.845095 C253.334047,200.842643 253.334047,200.842643 253.334047,200.842643 L253.331591,200.84019 C253.32422,200.837738 253.326677,200.837738 253.326677,200.837738 C253.32422,200.84019 253.32422,200.835286 253.319307,200.835286 L253.31685,200.832833 C253.319307,200.830381 253.314394,200.830381 253.311937,200.830381 C253.311937,200.830381 253.30948,200.830381 253.30948,200.827929 C253.307024,200.825476 253.30211,200.825476 253.299654,200.825476 C253.297197,200.825476 253.292283,200.823024 253.289827,200.823024 L253.284913,200.820571 C253.284913,200.820571 253.282457,200.820571 253.28,200.818119 L253.275087,200.815667 C253.267717,200.813214 253.267717,200.813214 253.270173,200.813214 C253.262803,200.813214 253.262803,200.813214 253.26526,200.810762 C253.262803,200.810762 253.262803,200.80831 253.262803,200.80831 C253.260346,200.80831 253.25789,200.805857 253.25789,200.805857 L253.255433,200.805857 C253.110488,200.754357 252.955717,200.722476 252.793575,200.715119 L252.791118,200.715119 C252.788661,200.715119 252.786205,200.715119 252.786205,200.715119 C252.783748,200.715119 252.781291,200.715119 252.778835,200.715119 L252.776378,200.715119 L252.773921,200.715119 L252.771465,200.715119 C252.769008,200.712667 252.769008,200.712667 252.766551,200.712667 C252.766551,200.712667 252.764094,200.712667 252.761638,200.712667 C252.761638,200.712667 252.759181,200.712667 252.756724,200.712667 L252.754268,200.712667 C252.754268,200.712667 252.751811,200.712667 252.751811,200.712667 L252.749354,200.712667 C252.746898,200.712667 252.744441,200.712667 252.744441,200.712667 L252.739528,200.712667 C252.739528,200.712667 252.739528,200.712667 252.737071,200.712667 C252.737071,200.712667 252.734614,200.712667 252.734614,200.712667 L252.732157,200.712667 C252.732157,200.712667 252.729701,200.712667 252.729701,200.712667 L252.727244,200.712667 L252.724787,200.712667 L252.722331,200.712667 L252.719874,200.712667 C252.719874,200.712667 252.717417,200.712667 252.717417,200.712667 C248.651591,200.712667 245.322772,197.406857 245.298205,193.355524 L245.298205,147.768214 L251.619276,147.768214 C251.629102,147.768214 251.641386,147.768214 251.651213,147.768214 C252.547906,147.746143 253.275087,147.069286 253.275087,146.179071 C253.275087,145.514476 252.867276,144.945524 252.287496,144.707643 L221.873638,123.7545 C221.330709,123.379286 220.608441,123.379286 220.063055,123.7545 L189.413354,144.8695 C188.838488,145.264333 188.590362,145.987786 188.796724,146.652381 C189.005543,147.316976 189.619717,147.768214 190.317417,147.768214 L196.638488,147.768214 L196.643402,193.380048 C196.675339,199.091643 201.274268,203.756071 207.11874,203.89831 C207.182614,203.905667 207.246488,203.908119 207.310362,203.908119 L252.712504,203.908119 C252.722331,203.908119 252.729701,203.908119 252.739528,203.908119 C253.157165,203.900762 253.535496,203.734 253.815559,203.46669 L253.818016,203.464238 C253.822929,203.459333 253.830299,203.454429 253.830299,203.451976 C253.832756,203.449524 253.835213,203.449524 253.837669,203.444619 C253.837669,203.444619 253.840126,203.442167 253.840126,203.442167 L253.842583,203.439714 L253.845039,203.437262 L253.847496,203.43481 L253.849953,203.432357 L253.852409,203.429905 C253.85978,203.427452 253.854866,203.427452 253.857323,203.425 C253.857323,203.425 253.857323,203.425 253.85978,203.422548 L253.862236,203.420095 C253.862236,203.420095 253.862236,203.420095 253.864693,203.417643 C254.139843,203.133167 254.311811,202.748143 254.314268,202.321429 L254.314268,202.316524 L254.314268,202.314071 L254.314268,202.321429 L254.314268,202.318976 L254.314268,202.316524 L254.314268,202.314071 L254.314268,202.311619 L254.314268,202.306714 C254.314268,201.671548 253.93348,201.122214 253.388094,200.874524 Z" id="Path" fill="#F2D864"></path>
            </g>
            <g id="Group" transform="translate(0.000000, 225.000000)" fill="#FFFFFF">
                <path d="M96.0137021,19.8286429 C94.4947376,18.1701786 92.5929645,16.8616429 90.3599149,15.9326071 C88.0851489,14.9937143 85.4324823,14.5107143 82.4804397,14.5008571 C79.5308511,14.5131786 76.8806383,14.9937143 74.6058723,15.9350714 C72.3728227,16.8616429 70.4685957,18.1726429 68.9496312,19.8311071 C67.398766,21.5363929 66.2675177,23.4536071 65.4969929,25.6911786 C64.7117447,27.9361429 64.3142128,30.4028929 64.3142128,33.0298214 C64.3142128,35.0258929 64.5203404,36.9726786 64.9276879,38.8233571 C65.322766,40.6222857 65.9705957,42.3300357 66.8564539,43.9047143 C67.7275887,45.4350357 68.8784681,46.7928571 70.2771915,47.93875 C71.6636454,49.0871071 73.3838298,49.9939643 75.3911206,50.6322143 C77.3984113,51.2803214 79.7860567,51.6154643 82.4853475,51.6277857 C85.1846383,51.6154643 87.5698298,51.2803214 89.5746667,50.6322143 C91.5844113,49.9939643 93.3045957,49.0871071 94.6885957,47.93875 C96.0799574,46.8051786 97.2308369,45.4473571 98.116695,43.8973214 C99.0000993,42.3251071 99.6479291,40.6148929 100.043007,38.8184286 C100.455262,36.9923929 100.656482,35.0973571 100.656482,33.0248929 C100.656482,30.4004286 100.256496,27.9312143 99.4737021,25.6887143 C98.6982695,23.4536071 97.5670213,21.5363929 96.0137021,19.8286429 Z M91.3537447,37.6725357 C91.0151064,39.1215357 90.4605248,40.4547143 89.7071773,41.6301786 C88.9538298,42.8056429 87.9624539,43.7519286 86.7698582,44.4394643 C85.5649929,45.1220714 84.1270071,45.472 82.4902553,45.4818571 C80.8485957,45.4695357 79.4130638,45.1196071 78.2155603,44.4419286 C77.0033333,43.7420714 76.0095035,42.79825 75.2610638,41.6301786 C74.5224397,40.4842857 73.9703121,39.1535714 73.6144965,37.6725357 C73.2684965,36.2333929 73.0918156,34.6735 73.0918156,33.0298214 C73.0918156,31.30975 73.2758582,29.6931786 73.6365816,28.2195357 C73.9874894,26.7508214 74.5567943,25.4275 75.3248652,24.289 C76.1076596,23.1431071 77.1039433,22.2436429 78.2867234,21.6103214 C79.4670496,20.9843929 80.8780426,20.6615714 82.4755319,20.64925 L82.4878014,20.64925 C84.080383,20.6615714 85.4913759,20.9843929 86.6839716,21.6078571 C87.8667518,22.2461071 88.8581277,23.1480357 89.6360142,24.2865357 C90.4016312,25.4201071 90.9733901,26.7434286 91.3365674,28.222 C91.692383,29.7079643 91.8715177,31.3245357 91.8715177,33.0322857 C91.8739716,34.6685714 91.6997447,36.2309286 91.3537447,37.6725357 Z" id="Shape"></path>
                <path d="M123.335433,50.8416786 C124.783234,50.3118571 126.069078,49.5873571 127.156156,48.6928214 C128.294766,47.7637857 129.330312,46.6770357 130.230894,45.4596786 L130.446837,45.1688929 L131.524099,45.1688929 L131.663972,45.8884643 L131.663972,47.2216429 C131.663972,48.1556071 131.80139,48.9515714 132.088496,49.6538929 C132.355972,50.2773571 132.760865,50.7529643 133.315447,51.0905714 C133.874936,51.4380357 134.633191,51.6203929 135.573035,51.63025 C136.498156,51.6203929 137.256411,51.4380357 137.810993,51.0930357 C138.370482,50.7505 138.772922,50.2773571 139.047759,49.6391071 C139.329957,48.9491071 139.467376,48.1531429 139.467376,47.2191786 L139.467376,18.907 C139.477191,18.0765357 139.344681,17.3076786 139.074752,16.6176786 C138.83427,15.9843571 138.41956,15.4915 137.801177,15.1021429 C137.163163,14.7127857 136.24295,14.50825 135.07244,14.4983929 C133.92156,14.50825 133.006255,14.71525 132.363333,15.1070714 C131.749858,15.4915 131.330241,15.9868214 131.079943,16.6176786 C130.810014,17.3076786 130.677504,18.0765357 130.687319,18.8996071 L130.687319,35.8366429 C130.67505,37.2486786 130.419844,38.4660357 129.909433,39.5700357 C129.401475,40.6543214 128.729106,41.5808929 127.911957,42.3275714 C127.097262,43.0717857 126.179504,43.6484286 125.188128,44.0451786 C124.157489,44.4419286 123.185745,44.6341429 122.206638,44.6341429 C120.611603,44.6218214 119.266865,44.2768214 118.204326,43.6114643 C117.134426,42.9313214 116.329546,41.9825714 115.801957,40.7849286 C115.30627,39.6636786 115.053518,38.3280357 115.053518,36.8174286 L115.053518,18.9020714 C115.063333,18.0740714 114.930823,17.3052143 114.65844,16.6102857 C114.408142,15.9720357 113.990979,15.4767143 113.384865,15.0972143 C112.749305,14.7078571 111.826638,14.5008571 110.656128,14.491 C109.497887,14.5008571 108.577674,14.7078571 107.934752,15.0996786 C107.331092,15.4841071 106.911475,15.9818929 106.663631,16.6102857 C106.391248,17.30275 106.261191,18.0691429 106.271007,18.88975 L106.271007,38.8504643 C106.293092,41.3393929 106.65627,43.4340357 107.355631,45.0653929 C108.052539,46.6868929 108.987475,47.9905 110.135901,48.93925 C111.306411,49.90525 112.577532,50.5804643 114.022879,51.0043214 C115.431418,51.4183214 116.830142,51.6203929 118.300028,51.6203929 L118.42027,51.6203929 C120.248426,51.6179286 121.904809,51.35425 123.335433,50.8416786 Z" id="Path"></path>
                <path d="M56.1181844,1.15675 C55.4384539,0.824071429 54.6605674,0.661428571 53.7501702,0.661428571 C52.8520426,0.661428571 52.0520709,0.829 51.3723404,1.16167857 C50.7441418,1.48203571 50.2631773,1.95025 49.9122695,2.58357143 C49.5564539,3.22921429 49.3699574,4.06707143 49.3601418,5.07496429 L49.3601418,47.2191786 C49.3699574,48.2196786 49.5564539,49.0575357 49.9122695,49.7031786 C50.2558156,50.3266429 50.7367801,50.7899286 51.382156,51.1201429 C52.049617,51.4552857 52.8471348,51.6277857 53.7501702,51.6277857 C54.6630213,51.6277857 55.4409078,51.4602143 56.1230922,51.1176786 C56.7635603,50.7923929 57.2445248,50.3291071 57.5880709,49.7031786 C57.9438865,49.0575357 58.130383,48.2196786 58.1401986,47.2093214 L58.1401986,5.06757143 C58.1279291,4.06460714 57.9438865,3.22675 57.5880709,2.58357143 C57.2371631,1.95025 56.7561986,1.48203571 56.1181844,1.15675 Z" id="Path"></path>
                <path d="M343.060156,17.37175 C342.912922,16.9478929 342.662624,16.4993929 342.32644,16.06075 C341.992709,15.6393571 341.536284,15.2820357 340.94244,14.9715357 C340.360865,14.6684286 339.619787,14.5107143 338.733929,14.5008571 C337.941319,14.5107143 337.291035,14.6758214 336.763447,15.0035714 C336.211319,15.3461071 335.757348,15.8093929 335.413801,16.3786429 C335.040809,17.0070357 334.753702,17.7142857 334.537759,18.5324286 L328.169887,42.3201786 L327.072993,42.3201786 L326.785887,41.7928214 L320.209433,17.8375 C319.92478,16.8074286 319.409461,16.0163929 318.634028,15.4200357 C317.834057,14.8138214 316.857404,14.5131786 315.647631,14.5033214 C314.852567,14.5131786 314.148298,14.6955357 313.510284,15.0553214 C312.864908,15.4298929 312.364312,15.9178214 311.988865,16.54375 C311.603603,17.1672143 311.414652,17.8744643 311.402383,18.7123214 C311.402383,19.0351429 311.444099,19.3924643 311.525078,19.7645714 C311.613418,20.1785714 311.748383,20.6467857 311.925064,21.1790714 C312.11156,21.75325 312.344681,22.4383214 312.621972,23.2416786 L323.325887,53.8628929 L323.274355,54.0723571 C322.997064,55.1911429 322.621617,56.0437857 322.165191,56.6031786 C321.681773,57.1773571 321.134553,57.5420714 320.52844,57.6997857 C320.086738,57.80575 319.654851,57.8575 319.235234,57.8575 L318.972667,57.8501071 L317.96166,57.8501071 C317.129787,57.8501071 316.432879,57.9831786 315.82922,58.2567143 C315.250099,58.5080714 314.801035,58.8826429 314.479574,59.3755 C314.163021,59.8732857 314.001064,60.4992143 313.991248,61.2853214 C313.991248,61.9925714 314.172837,62.6234286 314.543376,63.2074643 C314.92373,63.8062857 315.502851,64.2769643 316.322454,64.6490714 C317.166596,65.0458214 318.302752,65.2528214 319.711291,65.2626786 C321.222894,65.2626786 322.550454,65.05075 323.654709,64.6293571 C324.771234,64.2030357 325.713532,63.5943571 326.538043,62.7663571 C327.389546,61.91125 328.155163,60.8466786 328.815262,59.6022143 C329.494993,58.2838214 330.135461,56.7559643 330.717035,55.0679286 L342.542383,21.4131786 C342.782865,20.7601429 342.962,20.1859643 343.096965,19.6684643 C343.212298,19.1953214 343.271191,18.7714643 343.271191,18.4215357 C343.273645,18.2465714 343.236837,17.9262143 343.060156,17.37175 Z" id="Path"></path>
                <path d="M277.408496,46.1817143 C277.261262,45.6666786 277.141021,45.0678571 277.025688,44.2940714 C276.92017,43.5892857 276.868638,42.712 276.853915,41.539 L276.853915,24.3185714 C276.844099,22.6058929 276.471106,21.13225 275.744752,19.9395357 C274.998766,18.7 273.968128,17.7093571 272.591489,16.9084643 C271.200128,16.0977143 269.511844,15.4890357 267.575716,15.09475 C265.619957,14.7004643 263.404085,14.4983929 260.989447,14.4983929 C260.667986,14.5008571 260.348979,14.5057857 260.034879,14.5156429 L259.779674,14.5378214 C258.790752,14.5797143 257.914709,14.6536429 257.09756,14.767 L256.714752,14.8286071 C255.745461,14.9789286 254.930766,15.1489643 254.226496,15.3510357 C252.292823,15.88825 250.653617,16.6053571 249.343234,17.4826429 C248.035305,18.3623929 247.051291,19.3012857 246.420638,20.2746786 C245.785078,21.2554643 245.475887,22.1647857 245.475887,23.0543929 C245.485702,23.6359643 245.630482,24.1583929 245.920043,24.6364643 C246.212057,25.1194643 246.621858,25.5038929 247.169078,25.8094643 C247.716298,26.1027143 248.371489,26.2604286 249.105206,26.2702857 C249.73095,26.2604286 250.300255,26.1027143 250.773858,25.7971429 C251.28427,25.462 251.811858,25.0258214 252.332085,24.5009286 C252.91366,23.9045714 253.544312,23.3254643 254.204411,22.78825 C254.943035,22.1869643 255.831348,21.6916429 256.923333,21.2801071 C257.387121,21.1076071 257.931887,20.9671429 258.589532,20.8537857 C258.719589,20.8316071 258.861915,20.8143571 259.004241,20.7971071 L259.168652,20.7798571 C259.691333,20.7133214 260.265546,20.6541786 260.913376,20.6467857 C262.157504,20.6467857 263.301021,20.8020357 264.31939,21.1100714 C265.416284,21.44275 266.30705,21.9750357 266.972057,22.6921429 C267.686142,23.4363571 268.059135,24.40975 268.071404,25.5728929 C268.059135,26.7163214 267.818652,27.5862143 267.337688,28.2441786 C266.846908,28.8824286 266.199078,29.3358571 265.40156,29.602 C264.707106,29.8385714 263.904681,30.0036786 263.018823,30.0923929 L256.800638,30.7947143 C254.925858,30.9943214 253.100156,31.3343929 251.367702,31.8050714 C249.716227,32.2683571 248.25861,32.9164643 247.046383,33.7346071 C245.841518,34.5453571 244.889404,35.6123929 244.217035,36.9110714 C243.532397,38.2245357 243.179035,39.8977857 243.166766,41.8864643 C243.176582,43.3650357 243.483319,44.73025 244.082071,45.9303571 C244.678369,47.1304643 245.470979,48.1309643 246.499163,48.9885357 C247.512624,49.8337857 248.683135,50.49175 249.973887,50.9476429 C251.296539,51.4084643 252.61183,51.6327143 253.993376,51.6327143 L254.155333,51.6327143 C255.831348,51.6327143 257.448468,51.4503571 258.960071,51.0905714 C259.244723,51.0240357 259.529376,50.9476429 259.806667,50.8638571 C260.02261,50.7997857 260.231191,50.7184643 260.439773,50.6371429 L261.013986,50.42275 C261.14895,50.3759286 261.286369,50.3291071 261.416426,50.2724286 C262.167319,49.957 262.824965,49.62925 263.421262,49.2743929 C264.82244,48.4365357 266.181901,47.2980357 267.455475,45.8958571 L268.643163,44.5873214 L268.702057,46.3566786 C268.733957,47.3103571 268.927816,48.21475 269.286085,49.0476786 C269.624723,49.8165357 270.154766,50.4252143 270.898298,50.9008214 C271.64183,51.3764286 272.689645,51.6228571 274.00739,51.6327143 C274.728837,51.6228571 275.381574,51.4799286 275.98278,51.1965357 C276.559447,50.9279286 277.030596,50.5385714 277.383957,50.0457143 C277.717688,49.5799643 277.891915,49.0279643 277.90173,48.4045 C277.90173,48.1013929 277.85756,47.7958214 277.764312,47.4458929 L277.408496,46.1817143 Z M268.073858,38.158 C268.073858,39.2028571 267.843191,40.2353929 267.38922,41.2235714 C266.927887,42.2018929 266.284965,43.057 265.423645,43.8431071 C264.584411,44.5996429 263.556227,45.2058571 262.358723,45.6494286 C261.858128,45.8317857 261.291277,45.9796429 260.621362,46.1028571 L260.32444,46.1595357 C259.654525,46.2655 259.004241,46.3197143 258.339234,46.3271071 C257.050936,46.3147857 255.939319,46.1003929 255.024014,45.6913214 C254.069447,45.2699286 253.313645,44.6785 252.776241,43.9318214 C252.231475,43.1728214 251.954184,42.3177143 251.954184,41.3911429 C251.954184,40.2156786 252.258468,39.2151786 252.854766,38.41675 C253.433887,37.6331071 254.282936,37.0096429 255.372468,36.5685357 C256.415376,36.1446786 257.686496,35.8243214 259.144113,35.62225 L262.844596,35.0603929 C263.227404,34.9938571 263.696099,34.9026786 264.221234,34.7868571 C264.719376,34.6784286 265.224879,34.5231786 265.720567,34.3285 C266.172085,34.1510714 266.549986,33.9194286 266.876355,33.62125 L268.073858,32.5271071 L268.073858,38.158 L268.073858,38.158 Z" id="Shape"></path>
                <path d="M18.8409787,9.43182143 C20.5219007,8.62353571 22.3402411,8.21446429 24.2444681,8.21446429 C26.1020709,8.22678571 27.5915887,8.46582143 28.8087234,8.94389286 C30.0086809,9.39732143 31.0368652,10.0133929 31.8540142,10.7699286 C32.6269929,11.4968929 33.3042695,12.2756071 33.8686667,13.0888214 C34.4011631,13.85275 34.9189362,14.5846429 35.4367092,15.26725 C35.9029504,15.8808571 36.4599858,16.3885 37.0930922,16.7729286 C37.7041135,17.1450357 38.4918156,17.33725 39.4341135,17.3471071 C40.9260851,17.33725 42.0548794,16.9429643 42.7787801,16.1790357 C43.5174043,15.4175714 43.8879433,14.3061786 43.8879433,12.8695 C43.8879433,12.0045357 43.6253759,11.0089643 43.1051489,9.91235714 C42.5701986,8.81328571 41.7604113,7.6945 40.705234,6.58803571 C39.6476028,5.48157143 38.310227,4.44657143 36.7299149,3.51260714 C35.1594184,2.58357143 33.3091773,1.82457143 31.2282695,1.25778571 C29.14,0.686071429 26.7891631,0.392821429 24.2420142,0.3805 C21.1132908,0.390357143 18.2348652,0.843785714 15.6852624,1.72107143 C13.1700142,2.60328571 10.924695,3.84775 9.01556028,5.42489286 C7.09660993,7.03407143 5.48439716,8.91925 4.2329078,11.0212857 C2.93479433,13.1947857 1.95078014,15.5728214 1.31276596,18.0888571 C0.66248227,20.6541786 0.333659574,23.3624286 0.333659574,26.1421429 C0.355744681,31.8223214 1.33730496,36.6326071 3.25380142,40.4300714 C5.16293617,44.2102857 7.94075177,47.0910357 11.5087234,48.9934643 C15.1306809,50.9254643 19.5575177,51.90625 24.6591773,51.90625 C27.3756454,51.8840714 29.9277021,51.4774643 32.2466383,50.7036786 C34.5802979,49.9077143 36.6415745,48.83575 38.3740284,47.5222857 C40.1187518,46.1891071 41.4855745,44.6908214 42.4327801,43.0717857 C43.3848936,41.4552143 43.8732199,39.7745714 43.8830355,38.0791429 C43.8634043,37.3152143 43.6425532,36.6720357 43.2131206,36.1348214 C42.756695,35.5729643 42.1554894,35.1417143 41.4315887,34.8533929 C40.6635177,34.5355 39.8488227,34.3777857 39.002227,34.3777857 C38.2537872,34.3876429 37.6133191,34.5798571 37.0513759,34.96675 C36.4673475,35.38075 35.9225816,35.9204286 35.3999007,36.6104286 C34.8551348,37.33 34.3005532,38.1087143 33.7214326,38.9219286 C33.1275887,39.7696429 32.4380426,40.5877857 31.6675177,41.3467857 C30.8724539,42.1353571 29.8933475,42.7908571 28.7620993,43.2935714 C27.6063121,43.7962857 26.2296738,44.0575 24.6640851,44.0698214 C22.0776738,44.0575 19.8421702,43.5597143 18.0164681,42.5937143 C16.190766,41.6326429 14.6865248,40.2896071 13.5479149,38.6015714 C12.4387518,36.9381786 11.6216028,35.0111071 11.1136454,32.8745714 C10.6105957,30.7528214 10.3602979,28.4856786 10.3701135,26.13475 C10.382383,23.3377857 10.7431064,20.8045 11.4424681,18.6014286 C12.1590071,16.3835714 13.1577447,14.4860714 14.4067801,12.9631429 C15.6852624,11.4205 17.1747801,10.23025 18.8409787,9.43182143 Z" id="Path"></path>
                <path d="M179.809504,5.07003571 C179.809504,4.08432143 179.623007,3.24892857 179.257376,2.58603571 C178.906468,1.95025 178.425504,1.4845 177.787489,1.15675 C176.474652,0.506178571 174.408468,0.493857143 173.039191,1.16167857 C172.410993,1.48203571 171.930028,1.95025 171.579121,2.58357143 C171.225759,3.22675 171.039262,4.06460714 171.026993,5.07742857 L171.026993,19.6980357 L169.912922,19.6980357 L169.562014,19.3579643 C168.612355,17.82025 167.328965,16.6152143 165.743745,15.7748929 C165.336397,15.5629643 164.882426,15.3682857 164.357291,15.1883929 C164.26895,15.1563571 164.175702,15.1317143 164.084908,15.1070714 L163.881234,15.0479286 C163.537688,14.9444286 163.18678,14.8507857 162.823603,14.7793214 L162.65183,14.7349643 C162.467787,14.698 162.33773,14.6832143 162.207674,14.6659643 L161.542667,14.5797143 C161.073972,14.5328929 160.593007,14.5008571 160.092411,14.4983929 C158.033589,14.5107143 156.180894,14.8384643 154.590766,15.4767143 C152.99573,16.1125 151.587191,17.0144286 150.401957,18.1603214 C149.209362,19.3136071 148.235163,20.6344643 147.42783,22.1992857 C146.627858,23.7690357 146.034014,25.4546071 145.661021,27.2067143 C145.268397,28.9933214 145.069631,30.8785 145.069631,32.8178929 C145.09417,36.0510357 145.518695,38.8849643 146.335844,41.2334286 C147.155447,43.59175 148.284241,45.5557857 149.69278,47.0688571 C151.08905,48.5917857 152.720894,49.7426071 154.54905,50.5016071 C156.374752,51.25075 158.335418,51.63025 160.372156,51.63025 C161.145135,51.63025 161.898482,51.5760357 162.610113,51.4725357 C163.385546,51.35425 164.106993,51.1842143 164.776908,50.9648929 C166.09956,50.5188571 167.262709,49.8461071 168.227092,48.9614286 C169.191475,48.0989286 169.947277,46.9776786 170.479773,45.6223214 L170.658908,45.1664286 L171.861319,45.1664286 L172.001191,45.886 L172.001191,47.5025714 C172.011007,48.8924286 172.33983,49.93975 172.980298,50.6125 C173.62322,51.2877143 174.607234,51.63025 175.902894,51.63025 C177.245177,51.63025 178.241461,51.2901786 178.864752,50.6198929 C179.488043,49.9471429 179.804596,48.8973571 179.804596,47.5025714 L179.804596,5.07003571 L179.809504,5.07003571 Z M171.127603,37.5345357 C170.820865,38.9391786 170.310454,40.2181429 169.611092,41.3295357 C168.921546,42.4507857 167.98661,43.3625714 166.83573,44.0377857 C166.54617,44.2078214 166.241887,44.3556786 165.920426,44.4838214 C165.834539,44.5183214 165.738837,44.5454286 165.648043,44.5725357 L165.434553,44.6415357 C165.267688,44.6982143 165.100823,44.7548929 164.921688,44.79925 C164.813716,44.8263571 164.698383,44.8436071 164.585504,44.8633214 L164.443177,44.8855 C164.158525,44.9421786 164.008837,44.97175 163.851787,44.989 C163.729092,45.0037857 163.599035,45.0111786 163.471433,45.0161071 L163.149972,45.0358214 C162.99783,45.0481429 162.845688,45.058 162.688638,45.0604643 C161.174582,45.0087143 159.861745,44.6538571 158.752582,44.0008214 C157.648326,43.3650357 156.71339,42.4778929 155.97722,41.3689643 C155.268043,40.2822143 154.730638,39.0229643 154.374823,37.62325 C154.028823,36.2605 153.852142,34.7646786 153.852142,33.17275 C153.852142,32.1451429 153.928213,31.0953571 154.080355,30.0480357 C154.23495,28.9785357 154.502426,27.9090357 154.872965,26.8666429 C155.255773,25.807 155.78827,24.8385357 156.450823,23.9834286 C157.125645,23.1012143 157.989418,22.3890357 159.015149,21.874 C160.018794,21.3565 161.253106,21.0854286 162.676369,21.0731071 L162.681277,21.0731071 C162.872681,21.0731071 163.051816,21.0854286 163.233404,21.1002143 L163.547504,21.1199286 C163.667745,21.1248571 163.785532,21.1297857 163.898411,21.1445714 C164.094723,21.16675 164.278766,21.2061786 164.462809,21.2456071 L164.713106,21.2924286 C164.813716,21.3096786 164.914326,21.3269286 165.010028,21.3515714 C165.221064,21.4057857 165.41983,21.47725 165.616142,21.5511786 L165.792823,21.6127857 C165.876255,21.6398929 165.962142,21.667 166.040667,21.7015 C166.364582,21.8395 166.676227,22.0046071 166.970695,22.1918929 C168.128936,22.9287143 169.056511,23.9168929 169.731333,25.1293214 C170.391433,26.2924643 170.874851,27.601 171.171773,29.0081071 C171.458879,30.4620357 171.593844,31.8247857 171.584028,33.1801429 C171.588936,34.7400357 171.436794,36.1668571 171.127603,37.5345357 Z" id="Shape"></path>
                <path d="M306.632,21.3934643 C307.044255,20.7453571 307.257745,19.8606786 307.26756,18.7616071 C307.257745,17.9385357 307.054071,17.2189643 306.646723,16.5807143 C306.244284,15.9473929 305.672525,15.4422143 304.948624,15.0799643 C304.21,14.698 303.37322,14.5107143 302.381844,14.4983929 C301.289858,14.50825 300.30339,14.7374286 299.469064,15.1760714 C298.634738,15.6147143 297.920652,16.2086071 297.29,16.9848571 C296.666709,17.7635714 296.136667,18.64825 295.712142,19.6068571 C295.263078,20.5975 294.907262,21.598 294.617702,22.6748929 L294.475376,23.2071786 L293.209163,23.2071786 L293.069291,22.4876071 L293.069291,18.5546071 C293.057021,17.6600714 292.882794,16.8961429 292.544156,16.2973214 C292.203064,15.7009643 291.758908,15.2647857 291.184695,14.9666071 C290.590851,14.6536429 289.916028,14.4959286 289.170043,14.4959286 C288.424057,14.4959286 287.749234,14.6536429 287.160298,14.9641429 C286.581177,15.2647857 286.137021,15.7009643 285.793475,16.30225 C285.457291,16.8986071 285.28061,17.6600714 285.270794,18.562 L285.270794,47.2167143 C285.258525,48.0447143 285.391035,48.8135714 285.663418,49.5060357 C285.906355,50.1270357 286.328426,50.6174286 286.951716,51.00925 C287.575007,51.4084643 288.485404,51.613 289.660823,51.6253214 C290.833787,51.613 291.749092,51.406 292.382199,51.00925 C292.995674,50.6248214 293.412837,50.1319643 293.660681,49.5060357 C293.933064,48.8160357 294.063121,48.0496429 294.053305,47.2265714 L294.053305,35.2747857 C294.053305,32.3669286 294.303603,30.0973214 294.816468,28.3402857 C295.356326,26.5117857 296.16366,25.1835357 297.218837,24.3851071 C298.261745,23.58175 299.537773,23.1726786 301.00766,23.1726786 L302.953603,23.1751429 C303.731489,23.1751429 304.450482,23.02975 305.088496,22.7463571 C305.721603,22.4703571 306.239376,22.0169286 306.632,21.3934643 Z" id="Path"></path>
                <path d="M233.343801,17.1844643 C232.170837,16.216 230.899716,15.5407857 229.454369,15.1169286 C228.043376,14.7029286 226.642199,14.5008571 225.174766,14.5008571 C223.192014,14.5131786 221.538085,14.7793214 220.141816,15.2894286 C218.69156,15.8217143 217.405716,16.54375 216.318638,17.44075 C215.175121,18.37225 214.142028,19.459 213.243901,20.6738929 L213.030411,20.9646786 L211.953149,20.9646786 L211.810823,20.2451071 L211.810823,18.9119286 C211.810823,17.9779643 211.668496,17.1598214 211.388752,16.4821429 C211.121277,15.8562143 210.718837,15.3806071 210.161801,15.0405357 C209.587589,14.6832143 208.831787,14.5008571 207.911574,14.5008571 C206.991362,14.5008571 206.23556,14.68075 205.666255,15.0380714 C205.104312,15.3830714 204.701872,15.8562143 204.429489,16.4895357 C204.152199,17.1622857 204.009872,17.9779643 204.009872,18.9119286 L204.009872,47.2241071 C204.000057,48.0570357 204.132567,48.8234286 204.402496,49.5134286 C204.645433,50.1319643 205.06505,50.6248214 205.683433,51.0215714 C206.314085,51.4183214 207.22939,51.6253214 208.407262,51.6351786 C209.570411,51.6253214 210.485716,51.4183214 211.121277,51.0191071 C211.734752,50.6346786 212.151915,50.1418214 212.399759,49.5158929 C212.672142,48.8234286 212.802199,48.0570357 212.792383,47.2364286 L212.792383,30.2969286 C212.807106,28.8799643 213.059858,27.6626071 213.572723,26.5610714 C214.080681,25.4767857 214.75305,24.54775 215.570199,23.8035357 C216.38244,23.0617857 217.297745,22.4851429 218.294028,22.0859286 C219.287858,21.6891786 220.264511,21.4969643 221.275518,21.4969643 C222.882823,21.5092857 224.22756,21.8542857 225.282738,22.5196429 C226.34773,23.1973214 227.15261,24.1436071 227.677745,25.3313929 C228.175887,26.4674286 228.428638,27.8055357 228.428638,29.3112143 L228.428638,47.2265714 C228.418823,48.0570357 228.551333,48.8258929 228.821262,49.5158929 C229.064199,50.1368929 229.48627,50.6272857 230.10956,51.0191071 C230.742667,51.4158571 231.655518,51.6228571 232.818667,51.6351786 C233.991631,51.6228571 234.906936,51.4158571 235.542496,51.0191071 C236.165787,50.6272857 236.58295,50.1368929 236.813617,49.52575 C237.088454,48.8258929 237.220965,48.0595 237.211149,47.2364286 L237.211149,27.2757143 C237.189064,24.7843214 236.823433,22.6921429 236.126525,21.0607857 C235.417348,19.4171071 234.482411,18.1159643 233.343801,17.1844643 Z" id="Path"></path>
                <path d="M194.633518,15.1046071 C193.995504,14.71525 193.075291,14.5107143 191.902326,14.5008571 C190.758809,14.5107143 189.818965,14.7226429 189.195674,15.1070714 C188.582199,15.4939643 188.160128,15.9892857 187.912284,16.6201429 C187.639901,17.3150714 187.509844,18.0814643 187.51966,18.8996071 L187.51966,47.2216429 C187.50739,48.0496429 187.639901,48.8185 187.912284,49.5109643 C188.15522,50.1319643 188.577291,50.6223571 189.200582,51.0141786 C189.823872,51.4133929 190.73427,51.6179286 191.909688,51.63025 C193.082652,51.6179286 193.997957,51.4109286 194.633518,51.0141786 C195.244539,50.62975 195.661702,50.1393571 195.907092,49.5109643 C196.179475,48.8209643 196.309532,48.0545714 196.299716,47.2315 L196.299716,18.9119286 C196.309532,18.0814643 196.177021,17.3126071 195.907092,16.6226071 C195.656794,15.9818929 195.239631,15.4865714 194.633518,15.1046071 Z" id="Path"></path>
                <path d="M194.155007,1.27257143 C193.492454,0.88075 192.739106,0.67375 191.909688,0.666357143 C191.08027,0.676214286 190.329376,0.88075 189.664369,1.27257143 C188.992,1.67425 188.464411,2.20407143 188.064426,2.87928571 C187.674255,3.54464286 187.470582,4.30117857 187.460766,5.13410714 C187.470582,5.96703571 187.674255,6.72110714 188.064426,7.38646429 C188.464411,8.06167857 188.992,8.5915 189.664369,8.99317857 C190.326922,9.385 191.08027,9.58953571 191.909688,9.60185714 C192.739106,9.592 193.49,9.38746429 194.155007,8.99317857 C194.827376,8.5915 195.354965,8.06167857 195.75495,7.38646429 C196.145121,6.72110714 196.351248,5.96703571 196.361064,5.13410714 C196.351248,4.30117857 196.147574,3.54710714 195.75495,2.87928571 C195.354965,2.20160714 194.827376,1.67425 194.155007,1.27257143 Z" id="Path"></path>
            </g>
        </g>
    </g>
</svg>